<svg width="500" height="500" viewBox="0 0 500 500" fill="none" xmlns="http://www.w3.org/2000/svg">
<g clip-path="url(#clip0_8_2)">
<mask id="path-1-inside-1_8_2" fill="white">
<path d="M65.8623 -0.0645955C66.2745 -0.06569 66.6867 -0.0667845 67.1115 -0.0679121C68.4891 -0.0709635 69.8667 -0.070575 71.2443 -0.0701757C72.2336 -0.0716216 73.2229 -0.0732655 74.2122 -0.0750924C76.8974 -0.0793584 79.5826 -0.0804923 82.2678 -0.0808005C83.9464 -0.081144 85.6251 -0.0821757 87.3037 -0.0834562C93.1628 -0.0879251 99.0219 -0.0898983 104.881 -0.0895182C110.338 -0.0892281 115.794 -0.0943235 121.251 -0.101955C125.939 -0.108278 130.628 -0.110863 135.317 -0.110554C138.115 -0.110431 140.914 -0.111799 143.712 -0.11692C146.346 -0.121608 148.979 -0.121628 151.612 -0.11812C152.576 -0.117616 153.541 -0.118749 154.505 -0.121676C163.44 -0.147037 163.44 -0.147037 167.818 0.966184C168.969 1.12719 170.12 1.27933 171.273 1.41908C176.682 2.16714 181.192 3.9165 186.081 6.28019C186.534 6.49877 186.987 6.71735 187.454 6.94256C197.538 12.0661 206.661 20.0555 212.734 29.4686C212.905 29.7286 213.076 29.9886 213.252 30.2565C218.278 37.9403 222.147 46.2153 223.361 55.336C223.504 56.3642 223.662 57.3906 223.846 58.4127C224.776 63.8025 224.742 69.1591 224.746 74.6113C224.749 75.6476 224.753 76.6839 224.756 77.7202C224.762 79.8778 224.764 82.0353 224.763 84.1929C224.763 86.9588 224.777 89.7245 224.794 92.4904C224.805 94.6239 224.807 96.7573 224.806 98.8908C224.807 99.9113 224.812 100.932 224.819 101.952C224.829 103.373 224.826 104.793 224.82 106.214C224.826 106.635 224.831 107.056 224.837 107.489C224.807 110.332 224.807 110.332 223.669 111.82C222.304 112.771 220.878 113.496 219.367 114.191C218.661 114.526 217.956 114.862 217.252 115.199C216.656 115.483 216.656 115.483 216.049 115.774C213.361 117.08 210.706 118.449 208.045 119.807C203.511 122.116 198.966 124.399 194.384 126.617C192.766 127.402 191.151 128.194 189.536 128.986C188.878 129.308 188.22 129.63 187.562 129.952C187.236 130.111 186.91 130.271 186.575 130.435C185.587 130.918 184.6 131.401 183.613 131.884C183.287 132.043 182.962 132.203 182.626 132.367C181.968 132.689 181.309 133.011 180.65 133.333C179.01 134.136 177.37 134.94 175.733 135.749C172.366 137.409 168.986 139.026 165.566 140.58C162.919 141.784 160.325 143.048 157.762 144.414C154.853 145.963 151.898 147.399 148.908 148.792C148.293 149.081 148.293 149.081 147.665 149.375C147.283 149.552 146.901 149.728 146.508 149.909C146.167 150.067 145.826 150.225 145.475 150.387C144.62 150.725 144.62 150.725 143.633 150.725C143.566 145.241 143.502 139.758 143.44 134.275C143.411 131.725 143.381 129.175 143.35 126.625C143.146 109.697 143.139 92.7775 143.139 75.8454C122.942 75.8454 102.744 75.8454 81.9349 75.8454C81.9349 190.628 81.9349 305.411 81.9349 423.672C102.132 423.672 122.33 423.672 143.139 423.672C143.302 403.585 143.465 383.498 143.633 362.802C154.406 357.252 154.406 357.252 159.206 354.912C159.753 354.644 160.3 354.376 160.864 354.1C162.33 353.383 163.797 352.667 165.263 351.951C166.819 351.191 168.373 350.43 169.928 349.67C172.865 348.233 175.803 346.798 178.74 345.362C182.059 343.741 185.377 342.118 188.695 340.496C193.884 337.959 199.073 335.422 204.263 332.886C206.264 331.908 208.265 330.93 210.267 329.952C210.687 329.746 211.107 329.541 211.541 329.329C212.642 328.791 213.743 328.252 214.844 327.714C215.718 327.287 215.718 327.287 216.609 326.851C218.479 325.932 220.342 325.002 222.201 324.064C223.1 323.672 223.1 323.672 224.087 323.672C224.909 325.281 224.65 327.086 224.647 328.855C224.648 329.297 224.649 329.74 224.65 330.195C224.653 331.686 224.653 333.177 224.652 334.668C224.654 335.734 224.655 336.8 224.657 337.865C224.662 340.769 224.663 343.673 224.663 346.577C224.663 348.394 224.664 350.21 224.666 352.027C224.67 358.043 224.672 364.059 224.672 370.075C224.672 370.562 224.672 370.562 224.672 371.059C224.672 371.384 224.672 371.709 224.672 372.044C224.672 377.29 224.676 382.537 224.683 387.784C224.691 393.18 224.694 398.576 224.693 403.973C224.693 406.998 224.695 410.024 224.7 413.05C224.705 415.903 224.705 418.757 224.701 421.611C224.701 422.652 224.702 423.692 224.705 424.733C224.729 433.818 224.197 442.446 221.619 451.208C221.531 451.524 221.442 451.841 221.351 452.168C218.699 461.658 213.857 469.847 207.305 477.295C206.932 477.72 206.558 478.145 206.173 478.584C197.862 487.839 185.829 495.907 173.248 498.068C172.922 498.227 172.596 498.386 172.261 498.551C161.194 500.325 149.938 500.218 138.763 500.195C136.393 500.191 134.023 500.194 131.653 500.197C127.676 500.199 123.698 500.196 119.721 500.189C115.173 500.181 110.625 500.184 106.076 500.192C102.121 500.198 98.1646 500.199 94.2087 500.195C91.8685 500.193 89.5282 500.193 87.188 500.197C78.2134 500.214 69.282 500.116 60.3344 499.384C59.9943 499.358 59.6542 499.332 59.3038 499.305C47.0204 498.333 34.8486 493.031 25.6664 485.024C25.4021 484.795 25.1378 484.565 24.8655 484.329C21.6451 481.518 18.4543 478.701 15.7947 475.362C15.4219 474.895 15.049 474.427 14.6649 473.945C7.42932 464.594 2.39333 453.621 1.14501 441.903C1.08414 441.345 1.02326 440.787 0.960546 440.211C0.294154 433.562 0.216523 426.903 0.16782 420.228C0.156065 418.764 0.139297 417.299 0.122654 415.834C0.0665848 410.878 0.029636 405.922 4.85781e-05 400.966C-0.00315432 400.435 -0.00315337 400.435 -0.00642097 399.894C-0.0641664 390.163 -0.0779332 380.433 -0.0788211 370.702C-0.0792689 366.778 -0.0826085 362.854 -0.0858932 358.931C-0.0936665 349.483 -0.0967131 340.035 -0.0990959 330.588C-0.100262 326.102 -0.102045 321.616 -0.103886 317.13C-0.110199 301.707 -0.115494 286.283 -0.117209 270.86C-0.117319 269.9 -0.117431 268.939 -0.117541 267.979C-0.117649 267.017 -0.117756 266.055 -0.117864 265.093C-0.118083 263.164 -0.118305 261.234 -0.118527 259.305C-0.118581 258.827 -0.118637 258.348 -0.118693 257.856C-0.12049 242.304 -0.128379 226.752 -0.139849 211.2C-0.152022 194.664 -0.158759 178.128 -0.159348 161.592C-0.159432 159.774 -0.159534 157.956 -0.159657 156.138C-0.159684 155.691 -0.159719 155.243 -0.159747 154.782C-0.160311 147.632 -0.165717 140.482 -0.172935 133.332C-0.180066 126.143 -0.181595 118.953 -0.177649 111.764C-0.175661 107.882 -0.175959 104 -0.18311 100.118C-0.230334 73.1962 -0.230332 73.1962 0.647304 61.9596C0.675295 61.5899 0.703285 61.2201 0.732124 60.8392C2.1141 43.3722 10.9553 26.87 24.4633 15.3835C34.457 7.17665 45.7856 2.18553 58.7365 0.483092C59.3855 0.359628 59.3855 0.359628 60.0476 0.233671C61.9931 -0.0417841 63.9016 -0.0684382 65.8623 -0.0645955Z"/>
</mask>
<path d="M65.8623 -0.0645955C66.2745 -0.06569 66.6867 -0.0667845 67.1115 -0.0679121C68.4891 -0.0709635 69.8667 -0.070575 71.2443 -0.0701757C72.2336 -0.0716216 73.2229 -0.0732655 74.2122 -0.0750924C76.8974 -0.0793584 79.5826 -0.0804923 82.2678 -0.0808005C83.9464 -0.081144 85.6251 -0.0821757 87.3037 -0.0834562C93.1628 -0.0879251 99.0219 -0.0898983 104.881 -0.0895182C110.338 -0.0892281 115.794 -0.0943235 121.251 -0.101955C125.939 -0.108278 130.628 -0.110863 135.317 -0.110554C138.115 -0.110431 140.914 -0.111799 143.712 -0.11692C146.346 -0.121608 148.979 -0.121628 151.612 -0.11812C152.576 -0.117616 153.541 -0.118749 154.505 -0.121676C163.44 -0.147037 163.44 -0.147037 167.818 0.966184C168.969 1.12719 170.12 1.27933 171.273 1.41908C176.682 2.16714 181.192 3.9165 186.081 6.28019C186.534 6.49877 186.987 6.71735 187.454 6.94256C197.538 12.0661 206.661 20.0555 212.734 29.4686C212.905 29.7286 213.076 29.9886 213.252 30.2565C218.278 37.9403 222.147 46.2153 223.361 55.336C223.504 56.3642 223.662 57.3906 223.846 58.4127C224.776 63.8025 224.742 69.1591 224.746 74.6113C224.749 75.6476 224.753 76.6839 224.756 77.7202C224.762 79.8778 224.764 82.0353 224.763 84.1929C224.763 86.9588 224.777 89.7245 224.794 92.4904C224.805 94.6239 224.807 96.7573 224.806 98.8908C224.807 99.9113 224.812 100.932 224.819 101.952C224.829 103.373 224.826 104.793 224.82 106.214C224.826 106.635 224.831 107.056 224.837 107.489C224.807 110.332 224.807 110.332 223.669 111.82C222.304 112.771 220.878 113.496 219.367 114.191C218.661 114.526 217.956 114.862 217.252 115.199C216.656 115.483 216.656 115.483 216.049 115.774C213.361 117.08 210.706 118.449 208.045 119.807C203.511 122.116 198.966 124.399 194.384 126.617C192.766 127.402 191.151 128.194 189.536 128.986C188.878 129.308 188.22 129.63 187.562 129.952C187.236 130.111 186.91 130.271 186.575 130.435C185.587 130.918 184.6 131.401 183.613 131.884C183.287 132.043 182.962 132.203 182.626 132.367C181.968 132.689 181.309 133.011 180.65 133.333C179.01 134.136 177.37 134.94 175.733 135.749C172.366 137.409 168.986 139.026 165.566 140.58C162.919 141.784 160.325 143.048 157.762 144.414C154.853 145.963 151.898 147.399 148.908 148.792C148.293 149.081 148.293 149.081 147.665 149.375C147.283 149.552 146.901 149.728 146.508 149.909C146.167 150.067 145.826 150.225 145.475 150.387C144.62 150.725 144.62 150.725 143.633 150.725C143.566 145.241 143.502 139.758 143.44 134.275C143.411 131.725 143.381 129.175 143.35 126.625C143.146 109.697 143.139 92.7775 143.139 75.8454C122.942 75.8454 102.744 75.8454 81.9349 75.8454C81.9349 190.628 81.9349 305.411 81.9349 423.672C102.132 423.672 122.33 423.672 143.139 423.672C143.302 403.585 143.465 383.498 143.633 362.802C154.406 357.252 154.406 357.252 159.206 354.912C159.753 354.644 160.3 354.376 160.864 354.1C162.33 353.383 163.797 352.667 165.263 351.951C166.819 351.191 168.373 350.43 169.928 349.67C172.865 348.233 175.803 346.798 178.74 345.362C182.059 343.741 185.377 342.118 188.695 340.496C193.884 337.959 199.073 335.422 204.263 332.886C206.264 331.908 208.265 330.93 210.267 329.952C210.687 329.746 211.107 329.541 211.541 329.329C212.642 328.791 213.743 328.252 214.844 327.714C215.718 327.287 215.718 327.287 216.609 326.851C218.479 325.932 220.342 325.002 222.201 324.064C223.1 323.672 223.1 323.672 224.087 323.672C224.909 325.281 224.65 327.086 224.647 328.855C224.648 329.297 224.649 329.74 224.65 330.195C224.653 331.686 224.653 333.177 224.652 334.668C224.654 335.734 224.655 336.8 224.657 337.865C224.662 340.769 224.663 343.673 224.663 346.577C224.663 348.394 224.664 350.21 224.666 352.027C224.67 358.043 224.672 364.059 224.672 370.075C224.672 370.562 224.672 370.562 224.672 371.059C224.672 371.384 224.672 371.709 224.672 372.044C224.672 377.29 224.676 382.537 224.683 387.784C224.691 393.18 224.694 398.576 224.693 403.973C224.693 406.998 224.695 410.024 224.7 413.05C224.705 415.903 224.705 418.757 224.701 421.611C224.701 422.652 224.702 423.692 224.705 424.733C224.729 433.818 224.197 442.446 221.619 451.208C221.531 451.524 221.442 451.841 221.351 452.168C218.699 461.658 213.857 469.847 207.305 477.295C206.932 477.72 206.558 478.145 206.173 478.584C197.862 487.839 185.829 495.907 173.248 498.068C172.922 498.227 172.596 498.386 172.261 498.551C161.194 500.325 149.938 500.218 138.763 500.195C136.393 500.191 134.023 500.194 131.653 500.197C127.676 500.199 123.698 500.196 119.721 500.189C115.173 500.181 110.625 500.184 106.076 500.192C102.121 500.198 98.1646 500.199 94.2087 500.195C91.8685 500.193 89.5282 500.193 87.188 500.197C78.2134 500.214 69.282 500.116 60.3344 499.384C59.9943 499.358 59.6542 499.332 59.3038 499.305C47.0204 498.333 34.8486 493.031 25.6664 485.024C25.4021 484.795 25.1378 484.565 24.8655 484.329C21.6451 481.518 18.4543 478.701 15.7947 475.362C15.4219 474.895 15.049 474.427 14.6649 473.945C7.42932 464.594 2.39333 453.621 1.14501 441.903C1.08414 441.345 1.02326 440.787 0.960546 440.211C0.294154 433.562 0.216523 426.903 0.16782 420.228C0.156065 418.764 0.139297 417.299 0.122654 415.834C0.0665848 410.878 0.029636 405.922 4.85781e-05 400.966C-0.00315432 400.435 -0.00315337 400.435 -0.00642097 399.894C-0.0641664 390.163 -0.0779332 380.433 -0.0788211 370.702C-0.0792689 366.778 -0.0826085 362.854 -0.0858932 358.931C-0.0936665 349.483 -0.0967131 340.035 -0.0990959 330.588C-0.100262 326.102 -0.102045 321.616 -0.103886 317.13C-0.110199 301.707 -0.115494 286.283 -0.117209 270.86C-0.117319 269.9 -0.117431 268.939 -0.117541 267.979C-0.117649 267.017 -0.117756 266.055 -0.117864 265.093C-0.118083 263.164 -0.118305 261.234 -0.118527 259.305C-0.118581 258.827 -0.118637 258.348 -0.118693 257.856C-0.12049 242.304 -0.128379 226.752 -0.139849 211.2C-0.152022 194.664 -0.158759 178.128 -0.159348 161.592C-0.159432 159.774 -0.159534 157.956 -0.159657 156.138C-0.159684 155.691 -0.159719 155.243 -0.159747 154.782C-0.160311 147.632 -0.165717 140.482 -0.172935 133.332C-0.180066 126.143 -0.181595 118.953 -0.177649 111.764C-0.175661 107.882 -0.175959 104 -0.18311 100.118C-0.230334 73.1962 -0.230332 73.1962 0.647304 61.9596C0.675295 61.5899 0.703285 61.2201 0.732124 60.8392C2.1141 43.3722 10.9553 26.87 24.4633 15.3835C34.457 7.17665 45.7856 2.18553 58.7365 0.483092C59.3855 0.359628 59.3855 0.359628 60.0476 0.233671C61.9931 -0.0417841 63.9016 -0.0684382 65.8623 -0.0645955Z" fill="white" stroke="black" stroke-width="6" mask="url(#path-1-inside-1_8_2)"/>
<mask id="path-2-inside-2_8_2" fill="white">
<path d="M339.823 0.106848C340.223 0.104659 340.623 0.10247 341.036 0.100215C342.373 0.0941131 343.711 0.0948893 345.048 0.095688C346.009 0.0927957 346.97 0.0895078 347.932 0.0858545C350.543 0.0773174 353.154 0.0750543 355.766 0.0744383C357.403 0.0737504 359.04 0.0716854 360.677 0.069127C366.405 0.0601806 372.132 0.0562429 377.86 0.0570029C383.169 0.0575802 388.478 0.0474485 393.787 0.0321298C398.364 0.0194024 402.941 0.0143172 407.518 0.0149308C410.242 0.0151749 412.967 0.0125505 415.692 0.00219838C440.365 -0.0850143 460.778 2.35165 479.064 20.073C491.847 32.7488 498.173 49.0556 498.92 66.7083C498.939 67.1709 498.959 67.6334 498.979 68.11C499.245 75.036 499.344 81.9668 499.392 88.8972C499.408 91.0884 499.431 93.2789 499.472 95.4698C499.512 97.622 499.534 99.7737 499.541 101.926C499.547 102.739 499.56 103.551 499.58 104.364C499.725 110.601 499.725 110.601 498.406 112.304C497.361 112.968 496.371 113.359 495.198 113.763C494.448 114.144 493.703 114.535 492.962 114.934C492.145 115.344 491.328 115.751 490.509 116.157C490.065 116.38 489.62 116.602 489.161 116.831C487.72 117.551 486.276 118.269 484.833 118.986C483.833 119.485 482.832 119.984 481.832 120.483C474.222 124.275 466.593 128.03 458.945 131.749C457.696 132.358 456.447 132.969 455.2 133.582C451.391 135.454 447.568 137.287 443.712 139.065C439.746 140.906 435.839 142.831 431.964 144.849C429.199 146.288 426.423 147.704 423.629 149.089C423.254 149.277 422.878 149.466 422.492 149.661C419.852 150.961 419.852 150.961 418.199 150.961C417.519 149.629 417.645 148.563 417.646 147.072C417.645 146.137 417.645 146.137 417.644 145.184C417.646 144.489 417.648 143.794 417.65 143.1C417.65 142.371 417.65 141.643 417.65 140.915C417.649 138.934 417.652 136.952 417.656 134.971C417.659 132.902 417.659 130.833 417.66 128.764C417.661 124.845 417.665 120.925 417.67 117.005C417.677 111.71 417.68 106.414 417.682 101.119C417.687 92.7732 417.697 84.4273 417.706 76.0815C397.346 76.0815 376.985 76.0815 356.008 76.0815C356.008 190.864 356.008 305.647 356.008 423.908C376.205 423.748 396.403 423.589 417.212 423.424C417.296 403.956 417.296 403.956 417.359 384.488C417.382 380.725 417.382 380.725 417.395 378.964C417.404 377.409 417.406 375.853 417.405 374.298C417.408 372.758 417.423 371.218 417.436 369.678C417.434 369.128 417.431 368.579 417.429 368.012C417.436 367.511 417.443 367.009 417.45 366.492C417.452 366.056 417.453 365.62 417.455 365.17C417.788 363.624 418.451 363.066 419.68 362.072C420.836 361.431 421.971 360.849 423.166 360.29C423.511 360.125 423.855 359.96 424.211 359.79C426.466 358.715 428.736 357.673 431.007 356.63C431.392 356.453 431.777 356.276 432.174 356.094C432.565 355.914 432.956 355.735 433.359 355.55C436.594 354.053 439.759 352.444 442.917 350.799C446.342 349.016 449.802 347.311 453.279 345.627C454.225 345.166 455.169 344.702 456.113 344.235C459.791 342.419 463.492 340.663 467.218 338.944C471.033 337.181 474.781 335.324 478.503 333.384C481.607 331.767 484.738 330.211 487.891 328.688C489.172 328.068 490.443 327.431 491.709 326.782C492.021 326.623 492.333 326.465 492.655 326.302C493.506 325.869 494.355 325.432 495.204 324.995C496.693 324.385 497.566 324.338 499.147 324.391C499.159 336.847 499.167 349.304 499.173 361.76C499.175 367.545 499.179 373.331 499.184 379.116C499.189 384.167 499.192 389.217 499.194 394.267C499.194 396.934 499.196 399.601 499.199 402.268C499.224 421.478 499.224 421.478 498.938 430.784C498.92 431.387 498.902 431.99 498.884 432.611C498.428 445.397 495.431 457.273 488.782 468.352C488.359 469.057 488.359 469.057 487.928 469.777C485.34 473.822 482.112 477.185 478.724 480.589C478.036 481.281 477.358 481.983 476.681 482.686C467.743 491.812 454.648 497.735 441.891 499.27C441.419 499.329 441.419 499.329 440.937 499.39C431.559 500.522 422.141 500.387 412.711 500.382C410.813 500.381 408.915 500.384 407.017 500.386C402.526 500.391 398.035 500.392 393.544 500.389C388.959 500.386 384.374 500.392 379.789 500.402C375.811 500.411 371.834 500.413 367.856 500.412C365.498 500.411 363.141 500.412 360.784 500.419C351.879 500.442 343.03 500.379 334.158 499.561C333.825 499.531 333.491 499.5 333.148 499.469C330.219 499.196 327.635 498.939 324.912 497.821C324.291 497.711 323.67 497.601 323.03 497.488C313.77 495.546 305.166 489.737 298.241 483.685C297.599 483.129 296.948 482.584 296.286 482.05C284.979 472.839 277.335 457.014 275.255 442.954C275.082 441.718 275.082 441.718 274.567 440.333C274.509 439.373 274.48 438.412 274.466 437.45C274.457 436.84 274.447 436.229 274.437 435.599C274.429 434.912 274.421 434.225 274.413 433.539C274.403 432.805 274.393 432.071 274.382 431.337C274.354 429.284 274.33 427.23 274.308 425.176C274.293 423.838 274.277 422.5 274.262 421.161C273.951 394.094 274 367.025 274.006 339.956C274.007 334.478 274.008 328.999 274.007 323.521C274.007 323.126 274.007 322.731 274.007 322.323C274.007 320.717 274.007 319.111 274.006 317.505C274.005 302.563 274.006 287.621 274.009 272.68C274.011 259.535 274.011 246.39 274.009 233.245C274.006 218.328 274.005 203.411 274.007 188.495C274.007 186.891 274.007 185.287 274.007 183.684C274.007 183.289 274.007 182.895 274.007 182.488C274.008 177.028 274.007 171.567 274.006 166.107C274.002 147.165 274.012 128.223 274.068 109.28C274.073 107.504 274.078 105.728 274.083 103.952C274.101 97.5422 274.131 91.1325 274.18 84.7227C274.194 82.866 274.204 81.0094 274.21 79.1527C274.291 56.3612 278.01 36.4169 294.804 19.5597C295.145 19.1904 295.486 18.8211 295.837 18.4407C304.51 9.31526 318.431 2.07233 331.186 1.38527C332.789 1.26911 332.789 1.26911 334.138 0.715765C336.06 0.151041 337.837 0.0988223 339.823 0.106848Z"/>
</mask>
<path d="M339.823 0.106848C340.223 0.104659 340.623 0.10247 341.036 0.100215C342.373 0.0941131 343.711 0.0948893 345.048 0.095688C346.009 0.0927957 346.97 0.0895078 347.932 0.0858545C350.543 0.0773174 353.154 0.0750543 355.766 0.0744383C357.403 0.0737504 359.04 0.0716854 360.677 0.069127C366.405 0.0601806 372.132 0.0562429 377.86 0.0570029C383.169 0.0575802 388.478 0.0474485 393.787 0.0321298C398.364 0.0194024 402.941 0.0143172 407.518 0.0149308C410.242 0.0151749 412.967 0.0125505 415.692 0.00219838C440.365 -0.0850143 460.778 2.35165 479.064 20.073C491.847 32.7488 498.173 49.0556 498.92 66.7083C498.939 67.1709 498.959 67.6334 498.979 68.11C499.245 75.036 499.344 81.9668 499.392 88.8972C499.408 91.0884 499.431 93.2789 499.472 95.4698C499.512 97.622 499.534 99.7737 499.541 101.926C499.547 102.739 499.56 103.551 499.58 104.364C499.725 110.601 499.725 110.601 498.406 112.304C497.361 112.968 496.371 113.359 495.198 113.763C494.448 114.144 493.703 114.535 492.962 114.934C492.145 115.344 491.328 115.751 490.509 116.157C490.065 116.38 489.62 116.602 489.161 116.831C487.72 117.551 486.276 118.269 484.833 118.986C483.833 119.485 482.832 119.984 481.832 120.483C474.222 124.275 466.593 128.03 458.945 131.749C457.696 132.358 456.447 132.969 455.2 133.582C451.391 135.454 447.568 137.287 443.712 139.065C439.746 140.906 435.839 142.831 431.964 144.849C429.199 146.288 426.423 147.704 423.629 149.089C423.254 149.277 422.878 149.466 422.492 149.661C419.852 150.961 419.852 150.961 418.199 150.961C417.519 149.629 417.645 148.563 417.646 147.072C417.645 146.137 417.645 146.137 417.644 145.184C417.646 144.489 417.648 143.794 417.65 143.1C417.65 142.371 417.65 141.643 417.65 140.915C417.649 138.934 417.652 136.952 417.656 134.971C417.659 132.902 417.659 130.833 417.66 128.764C417.661 124.845 417.665 120.925 417.67 117.005C417.677 111.71 417.68 106.414 417.682 101.119C417.687 92.7732 417.697 84.4273 417.706 76.0815C397.346 76.0815 376.985 76.0815 356.008 76.0815C356.008 190.864 356.008 305.647 356.008 423.908C376.205 423.748 396.403 423.589 417.212 423.424C417.296 403.956 417.296 403.956 417.359 384.488C417.382 380.725 417.382 380.725 417.395 378.964C417.404 377.409 417.406 375.853 417.405 374.298C417.408 372.758 417.423 371.218 417.436 369.678C417.434 369.128 417.431 368.579 417.429 368.012C417.436 367.511 417.443 367.009 417.45 366.492C417.452 366.056 417.453 365.62 417.455 365.17C417.788 363.624 418.451 363.066 419.68 362.072C420.836 361.431 421.971 360.849 423.166 360.29C423.511 360.125 423.855 359.96 424.211 359.79C426.466 358.715 428.736 357.673 431.007 356.63C431.392 356.453 431.777 356.276 432.174 356.094C432.565 355.914 432.956 355.735 433.359 355.55C436.594 354.053 439.759 352.444 442.917 350.799C446.342 349.016 449.802 347.311 453.279 345.627C454.225 345.166 455.169 344.702 456.113 344.235C459.791 342.419 463.492 340.663 467.218 338.944C471.033 337.181 474.781 335.324 478.503 333.384C481.607 331.767 484.738 330.211 487.891 328.688C489.172 328.068 490.443 327.431 491.709 326.782C492.021 326.623 492.333 326.465 492.655 326.302C493.506 325.869 494.355 325.432 495.204 324.995C496.693 324.385 497.566 324.338 499.147 324.391C499.159 336.847 499.167 349.304 499.173 361.76C499.175 367.545 499.179 373.331 499.184 379.116C499.189 384.167 499.192 389.217 499.194 394.267C499.194 396.934 499.196 399.601 499.199 402.268C499.224 421.478 499.224 421.478 498.938 430.784C498.92 431.387 498.902 431.99 498.884 432.611C498.428 445.397 495.431 457.273 488.782 468.352C488.359 469.057 488.359 469.057 487.928 469.777C485.34 473.822 482.112 477.185 478.724 480.589C478.036 481.281 477.358 481.983 476.681 482.686C467.743 491.812 454.648 497.735 441.891 499.27C441.419 499.329 441.419 499.329 440.937 499.39C431.559 500.522 422.141 500.387 412.711 500.382C410.813 500.381 408.915 500.384 407.017 500.386C402.526 500.391 398.035 500.392 393.544 500.389C388.959 500.386 384.374 500.392 379.789 500.402C375.811 500.411 371.834 500.413 367.856 500.412C365.498 500.411 363.141 500.412 360.784 500.419C351.879 500.442 343.03 500.379 334.158 499.561C333.825 499.531 333.491 499.5 333.148 499.469C330.219 499.196 327.635 498.939 324.912 497.821C324.291 497.711 323.67 497.601 323.03 497.488C313.77 495.546 305.166 489.737 298.241 483.685C297.599 483.129 296.948 482.584 296.286 482.05C284.979 472.839 277.335 457.014 275.255 442.954C275.082 441.718 275.082 441.718 274.567 440.333C274.509 439.373 274.48 438.412 274.466 437.45C274.457 436.84 274.447 436.229 274.437 435.599C274.429 434.912 274.421 434.225 274.413 433.539C274.403 432.805 274.393 432.071 274.382 431.337C274.354 429.284 274.33 427.23 274.308 425.176C274.293 423.838 274.277 422.5 274.262 421.161C273.951 394.094 274 367.025 274.006 339.956C274.007 334.478 274.008 328.999 274.007 323.521C274.007 323.126 274.007 322.731 274.007 322.323C274.007 320.717 274.007 319.111 274.006 317.505C274.005 302.563 274.006 287.621 274.009 272.68C274.011 259.535 274.011 246.39 274.009 233.245C274.006 218.328 274.005 203.411 274.007 188.495C274.007 186.891 274.007 185.287 274.007 183.684C274.007 183.289 274.007 182.895 274.007 182.488C274.008 177.028 274.007 171.567 274.006 166.107C274.002 147.165 274.012 128.223 274.068 109.28C274.073 107.504 274.078 105.728 274.083 103.952C274.101 97.5422 274.131 91.1325 274.18 84.7227C274.194 82.866 274.204 81.0094 274.21 79.1527C274.291 56.3612 278.01 36.4169 294.804 19.5597C295.145 19.1904 295.486 18.8211 295.837 18.4407C304.51 9.31526 318.431 2.07233 331.186 1.38527C332.789 1.26911 332.789 1.26911 334.138 0.715765C336.06 0.151041 337.837 0.0988223 339.823 0.106848Z" fill="white" stroke="black" stroke-width="6" mask="url(#path-2-inside-2_8_2)"/>
</g>
<defs>
<clipPath id="clip0_8_2">
<rect width="500" height="500" fill="white"/>
</clipPath>
</defs>
</svg>
